<svg width="40" height="40" viewBox="0 0 40 40" fill="none" xmlns="http://www.w3.org/2000/svg">
<circle cx="20" cy="20" r="20" fill="#D7D7D7"/>
<path d="M14.3659 18.1162C14.2287 18.1162 14.0947 18.1585 13.9807 18.2378C13.8668 18.3171 13.778 18.4298 13.7258 18.5616C13.6736 18.6934 13.6601 18.8383 13.6873 18.978C13.7144 19.1178 13.7808 19.2459 13.8782 19.3464C13.9755 19.4468 14.0993 19.5149 14.2339 19.5421C14.3685 19.5692 14.5079 19.5542 14.6343 19.499C14.7607 19.4437 14.8685 19.3506 14.9439 19.2316C15.0194 19.1126 15.0591 18.973 15.0581 18.8305C15.0581 18.7362 15.0402 18.6429 15.0053 18.5559C14.9705 18.4689 14.9194 18.3899 14.855 18.3235C14.7907 18.2571 14.7143 18.2046 14.6304 18.169C14.5464 18.1334 14.4565 18.1155 14.3659 18.1162Z" fill="#555555"/>
<path d="M21.1724 18.0427C21.0701 18.0339 20.9671 18.0472 20.8699 18.0819C20.7728 18.1166 20.6836 18.1718 20.6081 18.2441C20.5325 18.3164 20.4722 18.4042 20.431 18.502C20.3897 18.5998 20.3684 18.7053 20.3684 18.8121C20.3684 18.9188 20.3897 19.0244 20.431 19.1222C20.4722 19.22 20.5325 19.3078 20.6081 19.3801C20.6836 19.4524 20.7728 19.5076 20.8699 19.5423C20.9671 19.577 21.0701 19.5903 21.1724 19.5815C21.3582 19.5656 21.5314 19.4776 21.6576 19.3351C21.7839 19.1925 21.854 19.0058 21.854 18.8121C21.854 18.6183 21.7839 18.4317 21.6576 18.2892C21.5314 18.1466 21.3582 18.0586 21.1724 18.0427Z" fill="#555555"/>
<path d="M27.3269 11H12.6731C12.3216 11 11.9736 11.072 11.649 11.212C11.3243 11.3519 11.0294 11.5571 10.7811 11.8156C10.5328 12.0742 10.3361 12.3811 10.202 12.7188C10.068 13.0564 9.99934 13.4183 10 13.7836V22.8172C9.99934 23.1825 10.068 23.5444 10.202 23.8821C10.3361 24.2198 10.5328 24.5267 10.7811 24.7852C11.0294 25.0438 11.3243 25.2489 11.649 25.3888C11.9736 25.5288 12.3216 25.6008 12.6731 25.6008H17.8474L19.6059 28.6218C19.6059 28.6218 19.7271 29 20.0202 29C20.3133 29 20.4346 28.6218 20.4346 28.6218L22.1981 25.6008H27.3219C28.0322 25.6008 28.7134 25.3076 29.2156 24.7855C29.7179 24.2635 30 23.5555 30 22.8172V13.7836C30 13.0462 29.7186 12.3391 29.2174 11.8172C28.7162 11.2953 28.0363 11.0014 27.3269 11ZM16.286 18.9884C16.286 20.6429 14.6337 20.6901 14.6337 20.6901C14.4455 20.6933 14.2586 20.6562 14.0848 20.5812C13.911 20.5062 13.7538 20.3949 13.623 20.2542V20.5483H12.4305V15.4223H13.623V17.3866C13.906 16.8614 14.7196 16.8929 14.7196 16.8929C16.5083 17.0609 16.286 18.9884 16.286 18.9884ZM18.3931 17.0452V20.5588H17.2208V17.0819C17.2208 16.6092 16.6549 16.4779 16.6549 16.4779V15.249C16.8867 15.2311 17.1195 15.2652 17.3375 15.349C17.5555 15.4328 17.7536 15.5643 17.9185 15.7346C18.0833 15.905 18.211 16.1102 18.2929 16.3363C18.3748 16.5624 18.409 16.8041 18.3931 17.0452ZM21.1723 20.6901C20.8208 20.6605 20.4851 20.525 20.2065 20.3002C19.9279 20.0754 19.7184 19.771 19.6036 19.4244C19.4888 19.0777 19.4737 18.7038 19.5602 18.3484C19.6467 17.993 19.831 17.6715 20.0906 17.4233C20.3501 17.175 20.6737 17.0108 21.0217 16.9508C21.3696 16.8907 21.7268 16.9373 22.0497 17.085C22.3725 17.2327 22.6469 17.4751 22.8393 17.7823C23.0317 18.0896 23.1337 18.4485 23.1329 18.8151C23.1106 19.3334 22.8919 19.8215 22.5246 20.1728C22.1572 20.5241 21.6711 20.7101 21.1723 20.6901ZM27.5847 20.6901C27.5904 20.9276 27.5491 21.1637 27.4634 21.3839C27.3777 21.6041 27.2493 21.8035 27.0863 21.97C26.9233 22.1365 26.7292 22.2663 26.5159 22.3515C26.3026 22.4367 26.0747 22.4755 25.8464 22.4653H25.3411V21.3099H25.6594C25.6594 21.3099 26.3921 21.3782 26.382 20.2069C26.382 20.2069 26.2405 20.6796 25.2148 20.6796C24.8245 20.6583 24.4566 20.4838 24.1855 20.1913C23.9144 19.8988 23.7603 19.5101 23.7544 19.104V18.542C23.7736 18.1015 23.9537 17.6852 24.2578 17.3778C24.562 17.0705 24.9674 16.8952 25.3916 16.8876C25.5843 16.8751 25.7771 16.9115 25.9532 16.9939C26.1293 17.0763 26.2834 17.202 26.4022 17.3603V16.9822H27.5897L27.5847 20.6901Z" fill="#555555"/>
<path d="M25.7251 18.0586C25.581 18.0576 25.4398 18.101 25.3195 18.1835C25.1992 18.266 25.1051 18.3837 25.0493 18.5218C24.9934 18.6599 24.9783 18.8122 25.0058 18.9592C25.0333 19.1063 25.1022 19.2415 25.2037 19.3478C25.3053 19.4541 25.435 19.5267 25.5762 19.5563C25.7175 19.5859 25.8641 19.5712 25.9973 19.5141C26.1306 19.457 26.2445 19.3601 26.3247 19.2356C26.4049 19.1112 26.4477 18.9647 26.4477 18.8149C26.4484 18.7158 26.4302 18.6176 26.3942 18.5259C26.3581 18.4342 26.305 18.3507 26.2379 18.2804C26.1707 18.2101 26.0908 18.1543 26.0028 18.1163C25.9148 18.0782 25.8204 18.0586 25.7251 18.0586Z" fill="#555555"/>
</svg>
