<?xml version="1.0" encoding="utf-8"?>
<!-- Generator: Adobe Illustrator 16.0.0, SVG Export Plug-In . SVG Version: 6.00 Build 0)  -->
<!DOCTYPE svg PUBLIC "-//W3C//DTD SVG 1.1//EN" "http://www.w3.org/Graphics/SVG/1.1/DTD/svg11.dtd">
<svg version="1.1" id="Layer_1" xmlns="http://www.w3.org/2000/svg" xmlns:xlink="http://www.w3.org/1999/xlink" x="0px" y="0px"
	 width="200px" height="41px" viewBox="0 0 200 41" enable-background="new 0 0 200 41" xml:space="preserve">
<g>
	<g>
		<g>
			<g>
				<g>
					<g>
						<g>
							<g>
								<path fill="#003964" d="M31.853,19.223c-3.432-2.378-7.83-1.407-10.139,2.169c-1.928,2.987-4.838,3.357-5.965,3.357
									c-3.673,0-6.186-2.633-6.93-5.356H8.815c-0.005-0.026-0.01-0.049-0.02-0.076c-0.005-0.031-0.014-0.061-0.023-0.091
									c-0.292-1.138-0.365-1.681-0.365-2.889c0-6.515,6.559-13.769,16.007-13.769c9.674,0,15.213,7.505,16.637,11.677
									c-0.023-0.073-0.045-0.146-0.072-0.222C38.235,5.865,30.642,0,21.704,0C10.456,0,1.333,9.292,1.333,20.758
									c0,10.246,7.253,19.02,17.315,19.02c8.024,0,13.418-4.585,15.893-10.904C35.896,25.418,34.937,21.357,31.853,19.223z"/>
							</g>
							<g>
								<path fill="#ED1A3B" d="M41.18,14.648c-1.19-4.067-6.769-12.081-16.765-12.081c-9.449,0-16.007,7.254-16.007,13.769
									c0,1.208,0.073,1.751,0.365,2.889c-0.122-0.499-0.188-0.998-0.188-1.483c0-6.784,6.668-11.485,13.522-11.485
									c9.277,0,16.797,7.663,16.797,17.115c0,7.411-4.185,13.823-10.266,16.905l0.001,0.006
									c7.838-2.892,13.436-10.542,13.436-19.525C42.075,18.631,41.795,16.757,41.18,14.648z"/>
							</g>
						</g>
					</g>
				</g>
			</g>
		</g>
	</g>
	<g>
		<path fill="#58595B" d="M70.51,20.786v2.283h-8v3.213h-2.582v-3.213H51.77v-2.283H70.51z M53.276,18.667V10.68h15.725v7.986
			H53.276z M55.814,24.534v4.029h13.439v2.281H53.276v-6.311H55.814z M66.487,12.892H55.769v3.634h10.719V12.892z"/>
		<path fill="#58595B" d="M85.931,29.122H72.56v-2.257h5.373v-2.587c-0.244-0.061-0.474-0.138-0.686-0.231
			c-0.61-0.248-1.145-0.582-1.601-1.001c-0.457-0.437-0.815-0.937-1.073-1.504c-0.26-0.567-0.39-1.167-0.39-1.805
			c0-0.636,0.13-1.235,0.39-1.792c0.258-0.559,0.617-1.055,1.073-1.492c0.456-0.434,0.986-0.771,1.589-1.012
			c0.601-0.241,1.247-0.36,1.93-0.36c0.686,0,1.326,0.119,1.918,0.36c0.598,0.241,1.113,0.578,1.557,1.012
			c0.457,0.437,0.818,0.933,1.083,1.492c0.267,0.557,0.402,1.156,0.402,1.792c0,0.638-0.135,1.238-0.402,1.805
			c-0.265,0.567-0.626,1.067-1.083,1.504c-0.444,0.419-0.959,0.753-1.557,1.001c-0.242,0.111-0.494,0.196-0.752,0.257v2.562h5.6
			V29.122z M77.749,12.496v-2.212h2.743v2.212h4.96v2.212h-12.66v-2.212H77.749z M81.658,19.715c0-0.684-0.246-1.269-0.733-1.757
			c-0.488-0.488-1.08-0.735-1.779-0.735c-0.704,0-1.297,0.247-1.787,0.735c-0.482,0.489-0.729,1.074-0.729,1.757
			c0,0.683,0.247,1.273,0.729,1.769c0.49,0.497,1.083,0.746,1.787,0.746c0.699,0,1.292-0.249,1.779-0.746
			C81.413,20.988,81.658,20.398,81.658,19.715z M89.886,31.196h-2.515V10.422h2.515v9.012h2.604v2.492h-2.604V31.196z"/>
		<path fill="#58595B" d="M93.611,14.708v-2.212h4.319v-2.212h2.672v2.212h4.07v2.212h-4.618l4.847,13.063l-2.218,0.769
			l-3.406-9.408l-3.404,9.571l-2.289-0.744l4.871-13.251H93.611z M106.362,10.445h2.355v20.634h-2.355V21.042h-2.649v-2.351h2.649
			V10.445z M110.638,10.422h2.446v20.774h-2.446V10.422z"/>
		<path fill="#58595B" d="M132.805,24.84v6.403h-2.536V27.05h-13.668v-2.21h3.246l0.023-2.425h-4.299V20.18h18.743v2.235h-4.32
			v2.425H132.805z M129.971,14.686c0,0.651-0.137,1.265-0.411,1.84c-0.273,0.574-0.633,1.086-1.073,1.535
			c-0.459,0.417-0.992,0.757-1.6,1.014c-0.612,0.255-1.257,0.382-1.942,0.382c-0.685,0-1.339-0.127-1.955-0.382
			c-0.617-0.257-1.154-0.596-1.611-1.014c-0.44-0.449-0.8-0.961-1.073-1.535c-0.274-0.576-0.413-1.189-0.413-1.84
			c0-0.652,0.139-1.265,0.413-1.84c0.273-0.574,0.633-1.087,1.073-1.538c0.457-0.434,0.994-0.781,1.611-1.037
			c0.616-0.255,1.271-0.383,1.955-0.383c0.686,0,1.33,0.127,1.942,0.383c0.607,0.256,1.141,0.604,1.6,1.037
			c0.44,0.451,0.8,0.964,1.073,1.538C129.834,13.42,129.971,14.033,129.971,14.686z M122.177,24.84h5.485v-2.425h-5.46
			L122.177,24.84z M127.483,14.686c0-0.7-0.251-1.294-0.745-1.783c-0.496-0.489-1.095-0.733-1.794-0.733
			c-0.702,0-1.305,0.244-1.807,0.733c-0.502,0.489-0.754,1.083-0.754,1.783c0,0.699,0.252,1.297,0.754,1.793
			c0.502,0.496,1.104,0.744,1.807,0.744c0.699,0,1.298-0.248,1.794-0.744C127.232,15.983,127.483,15.385,127.483,14.686z"/>
		<path fill="#58595B" d="M149.1,20.369v2.256h-12.18v-2.256h4.113v-4.52h2.399v4.52H149.1z M145.925,18.458v-5.31h-8.434v-2.306
			h10.902v7.616H145.925z M140.371,24.278v4.217h14.101v2.281h-16.639v-6.498H140.371z M153.921,23.348h-2.534V10.422h2.534V15.5
			h2.606v2.467h-2.606V23.348z"/>
		<path fill="#58595B" d="M162.378,19.341V15.29h2.399v4.052h5.669v2.167h-12.182v-2.167H162.378z M167.271,17.479v-4.354h-8.435
			v-2.281h10.899v6.636H167.271z M173.439,27.073c0,0.67-0.139,1.286-0.411,1.852c-0.273,0.568-0.639,1.077-1.096,1.524
			c-0.442,0.437-0.97,0.782-1.573,1.038c-0.612,0.257-1.271,0.384-1.969,0.384c-0.703,0-1.357-0.127-1.965-0.384
			c-0.61-0.256-1.146-0.602-1.604-1.038c-0.453-0.447-0.816-0.956-1.083-1.524c-0.267-0.565-0.401-1.182-0.401-1.852
			c0-0.668,0.135-1.292,0.401-1.874s0.63-1.1,1.083-1.548c0.459-0.42,0.994-0.757,1.604-1.014c0.607-0.255,1.262-0.385,1.965-0.385
			c0.698,0,1.356,0.13,1.969,0.385c0.604,0.257,1.131,0.594,1.573,1.014c0.457,0.448,0.822,0.966,1.096,1.548
			C173.301,25.781,173.439,26.405,173.439,27.073z M170.95,27.05c0-0.712-0.251-1.321-0.755-1.825
			c-0.504-0.506-1.106-0.758-1.805-0.758c-0.703,0-1.307,0.252-1.818,0.758c-0.51,0.504-0.767,1.113-0.767,1.825
			c0,0.716,0.257,1.315,0.767,1.806c0.512,0.488,1.115,0.734,1.818,0.734c0.698,0,1.301-0.246,1.805-0.734
			C170.699,28.365,170.95,27.766,170.95,27.05z M175.268,21.856h-2.536V10.422h2.536v4.24h2.607v2.42h-2.607V21.856z"/>
		<path fill="#58595B" d="M179.26,23.543H198v2.281h-8.112v5.356h-2.537v-5.356h-8.091V23.543z M183.259,13.388h10.721v-2.63h2.511
			v9.99h-15.722v-9.99h2.49V13.388z M193.979,15.625h-10.721v2.864h10.721V15.625z"/>
	</g>
</g>
</svg>
