<svg width="24" height="24" viewBox="0 0 24 24" fill="none" xmlns="http://www.w3.org/2000/svg">
<path d="M6.36586 10.1166C6.22873 10.1166 6.09466 10.1589 5.98071 10.2382C5.86676 10.3175 5.77805 10.4302 5.72581 10.562C5.67356 10.6938 5.66013 10.8387 5.68726 10.9784C5.71438 11.1182 5.78084 11.2463 5.87817 11.3468C5.97549 11.4472 6.0993 11.5153 6.23392 11.5425C6.36854 11.5696 6.50787 11.5546 6.63427 11.4994C6.76068 11.4441 6.86847 11.351 6.94392 11.232C7.01938 11.113 7.05913 10.9734 7.05813 10.8309C7.05813 10.7366 7.04018 10.6433 7.00533 10.5563C6.97048 10.4693 6.91939 10.3903 6.85504 10.3239C6.79069 10.2575 6.71435 10.205 6.63039 10.1694C6.54643 10.1338 6.45653 10.1159 6.36586 10.1166Z" fill="#555555"/>
<path d="M13.1723 10.0431C13.07 10.0343 12.967 10.0476 12.8698 10.0823C12.7727 10.117 12.6835 10.1722 12.608 10.2445C12.5324 10.3168 12.4721 10.4046 12.4309 10.5024C12.3896 10.6002 12.3683 10.7057 12.3683 10.8125C12.3683 10.9192 12.3896 11.0248 12.4309 11.1226C12.4721 11.2204 12.5324 11.3082 12.608 11.3805C12.6835 11.4528 12.7727 11.508 12.8698 11.5427C12.967 11.5774 13.07 11.5907 13.1723 11.5819C13.3581 11.566 13.5313 11.478 13.6575 11.3355C13.7838 11.1929 13.8539 11.0062 13.8539 10.8125C13.8539 10.6187 13.7838 10.4321 13.6575 10.2896C13.5313 10.147 13.3581 10.059 13.1723 10.0431Z" fill="#555555"/>
<path d="M19.3269 3H4.67306C4.32161 3 3.97361 3.07203 3.64897 3.21199C3.32433 3.35194 3.02941 3.55709 2.78113 3.81564C2.53284 4.07419 2.33605 4.38107 2.20202 4.71876C2.06798 5.05645 1.99934 5.4183 2 5.7836V14.8172C1.99934 15.1825 2.06798 15.5444 2.20202 15.8821C2.33605 16.2198 2.53284 16.5267 2.78113 16.7852C3.02941 17.0438 3.32433 17.2489 3.64897 17.3888C3.97361 17.5288 4.32161 17.6008 4.67306 17.6008H9.84739L11.6059 20.6218C11.6059 20.6218 11.7271 21 12.0202 21C12.3133 21 12.4346 20.6218 12.4346 20.6218L14.1981 17.6008H19.3219C20.0322 17.6008 20.7134 17.3076 21.2156 16.7855C21.7179 16.2635 22 15.5555 22 14.8172V5.7836C22 5.04625 21.7186 4.33906 21.2174 3.81718C20.7162 3.2953 20.0363 3.00139 19.3269 3ZM8.28602 10.9884C8.28602 12.6429 6.63365 12.6901 6.63365 12.6901C6.44546 12.6933 6.25864 12.6562 6.0848 12.5812C5.91096 12.5062 5.7538 12.3949 5.62304 12.2542V12.5483H4.43053V7.42229H5.62304V9.38657C5.90601 8.86136 6.71955 8.89287 6.71955 8.89287C8.50833 9.06094 8.28602 10.9884 8.28602 10.9884ZM10.3931 9.04517V12.5588H9.22082V9.08194C9.22082 8.60925 8.65488 8.47793 8.65488 8.47793V7.24896C8.88668 7.23109 9.11948 7.26521 9.33749 7.34901C9.5555 7.43281 9.75364 7.56431 9.91848 7.73464C10.0833 7.90498 10.211 8.11017 10.2929 8.33628C10.3748 8.56238 10.409 8.80413 10.3931 9.04517ZM13.1723 12.6901C12.8208 12.6605 12.4851 12.525 12.2065 12.3002C11.9279 12.0754 11.7184 11.771 11.6036 11.4244C11.4888 11.0777 11.4737 10.7038 11.5602 10.3484C11.6467 9.993 11.831 9.6715 12.0906 9.42327C12.3501 9.17504 12.6737 9.01083 13.0217 8.95076C13.3696 8.8907 13.7268 8.93735 14.0497 9.08505C14.3725 9.23274 14.6469 9.47506 14.8393 9.78233C15.0317 10.0896 15.1337 10.4485 15.1329 10.8151C15.1106 11.3334 14.8919 11.8215 14.5246 12.1728C14.1572 12.5241 13.6711 12.7101 13.1723 12.6901ZM19.5847 12.6901C19.5904 12.9276 19.5491 13.1637 19.4634 13.3839C19.3777 13.6041 19.2493 13.8035 19.0863 13.97C18.9233 14.1365 18.7292 14.2663 18.5159 14.3515C18.3026 14.4367 18.0747 14.4755 17.8464 14.4653H17.3411V13.3099H17.6594C17.6594 13.3099 18.3921 13.3782 18.382 12.2069C18.382 12.2069 18.2405 12.6796 17.2148 12.6796C16.8245 12.6583 16.4566 12.4838 16.1855 12.1913C15.9144 11.8988 15.7603 11.5101 15.7544 11.104V10.542C15.7736 10.1015 15.9537 9.68522 16.2578 9.37785C16.562 9.07048 16.9674 8.89518 17.3916 8.88761C17.5843 8.87505 17.7771 8.91154 17.9532 8.99391C18.1293 9.07628 18.2834 9.20205 18.4022 9.36031V8.98215H19.5897L19.5847 12.6901Z" fill="#555555"/>
<path d="M17.7251 10.0588C17.581 10.0578 17.4398 10.1012 17.3195 10.1837C17.1992 10.2662 17.1051 10.3839 17.0493 10.522C16.9934 10.6601 16.9783 10.8124 17.0058 10.9594C17.0333 11.1065 17.1022 11.2417 17.2037 11.348C17.3053 11.4543 17.435 11.5269 17.5762 11.5565C17.7175 11.5861 17.8641 11.5714 17.9973 11.5143C18.1306 11.4572 18.2445 11.3603 18.3247 11.2358C18.4049 11.1114 18.4477 10.9649 18.4477 10.8151C18.4484 10.716 18.4302 10.6178 18.3942 10.5261C18.3581 10.4344 18.305 10.3509 18.2379 10.2806C18.1707 10.2103 18.0908 10.1545 18.0028 10.1165C17.9148 10.0784 17.8204 10.0588 17.7251 10.0588Z" fill="#555555"/>
</svg>
