<svg width="32" height="32" viewBox="0 0 32 32" fill="none" xmlns="http://www.w3.org/2000/svg">
<g clip-path="url(#clip0_2029_498)">
<path d="M16.0006 0H16C7.16344 0 0 7.16344 0 16C0 24.8366 7.16344 32 16 32H16.0006C24.8372 32 32.0006 24.8366 32.0006 16C32.0006 7.16344 24.8372 0 16.0006 0Z" fill="#29BE42"/>
<path d="M11.4913 14.9131C11.1873 14.9131 10.9409 15.1522 10.9409 15.4472C10.9409 15.7423 11.1873 15.9824 11.4913 15.9824C11.7954 15.9824 12.0418 15.7434 12.0418 15.4472C12.0418 15.1511 11.7954 14.9131 11.4913 14.9131Z" fill="white"/>
<path d="M16.9336 14.8574C16.6059 14.8574 16.3403 15.1151 16.3403 15.4332C16.3403 15.7512 16.6059 16.009 16.9336 16.009C17.2614 16.009 17.527 15.7512 17.527 15.4332C17.527 15.1151 17.2614 14.8574 16.9336 14.8574Z" fill="white"/>
<path d="M19.9976 15.4332C19.9976 15.1228 20.2575 14.8706 20.5774 14.8706C20.8973 14.8706 21.1572 15.1228 21.1572 15.4332C21.1572 15.7436 20.8973 15.9958 20.5774 15.9958C20.2575 15.9958 19.9976 15.7436 19.9976 15.4332Z" fill="white"/>
<path fill-rule="evenodd" clip-rule="evenodd" d="M10.1407 9.59961H21.8604C23.0427 9.59961 24.0011 10.5296 24.0011 11.6768V18.4261C24.0011 19.5732 23.0427 20.5033 21.8604 20.5033H17.7587L16.3504 23.7221C16.3504 23.7221 16.2543 24.0007 16.0192 24.0007C15.7852 24.0007 15.688 23.7221 15.688 23.7221L14.2797 20.5033H10.1407C8.95846 20.5033 8 19.5732 8 18.4261V11.6768C8 10.5296 8.95846 9.59961 10.1407 9.59961ZM11.705 16.8347C11.705 16.8347 13.0195 16.7996 13.0263 15.5658H13.0251C13.0251 15.5658 13.2026 14.1236 11.7853 13.9953C11.7853 13.9953 11.1342 13.9887 10.9093 14.3616V12.8964C10.9093 12.8964 10.0119 12.9073 9.95196 12.8986V12.8964C9.94744 12.8975 9.95196 12.8986 9.95196 12.8986V16.7305H10.9093V16.5079C10.9093 16.5079 11.1964 16.8347 11.705 16.8347ZM14.7115 16.7371V14.1137C14.7115 14.1137 14.8189 12.8317 13.3224 12.7724V13.6882C13.3224 13.6882 13.7745 13.7869 13.7745 14.1401V16.7371H14.7115ZM15.3614 15.4342C15.3614 16.2085 16.0644 16.8369 16.9325 16.8369C17.8005 16.8369 18.5035 16.2085 18.5035 15.4342C18.5035 14.6599 17.8005 14.0315 16.9325 14.0315C16.0644 14.0315 15.3614 14.6599 15.3614 15.4342ZM20.6838 18.1694C22.0797 18.1694 22.0661 16.8369 22.0661 16.8369V14.0688H21.1156V14.3495C20.8047 13.9437 20.2995 13.9964 20.2995 13.9964C19.0189 14.0874 18.9918 15.2324 18.9918 15.2324V15.6513C18.9918 16.7557 20.1582 16.8369 20.1582 16.8369C20.9811 16.8369 21.0952 16.4816 21.0952 16.4816C21.102 17.3589 20.5154 17.3063 20.5154 17.3063H20.2588V18.1694H20.6838Z" fill="white"/>
</g>
<defs>
<clipPath id="clip0_2029_498">
<rect width="32" height="32" fill="white"/>
</clipPath>
</defs>
</svg>
