<svg width="90" height="38" viewBox="0 0 90 38" fill="none" xmlns="http://www.w3.org/2000/svg">
<path d="M47.137 6.0591C46.62 5.1381 45.917 4.3951 45.043 3.8561C44.18 3.3241 43.197 2.9601 42.1 2.7531C41.02 2.5531 39.902 2.4541 38.739 2.4541H30.288C30.153 2.4541 30.02 2.5081 29.925 2.6041C29.829 2.7011 29.776 2.8331 29.776 2.9691V25.5191C29.776 25.6551 29.828 25.7851 29.925 25.8821C30.023 25.9811 30.152 26.0321 30.288 26.0321H33.272C33.409 26.0321 33.54 25.9801 33.636 25.8821C33.733 25.7841 33.786 25.6541 33.786 25.5191V17.0171H38.939C41.773 17.0171 44.002 16.4141 45.573 15.1351C47.148 13.8521 47.927 11.9331 47.92 9.5531C47.919 8.1791 47.671 7.0081 47.137 6.0591ZM39.004 13.3031H33.785V6.1661H38.903C39.613 6.1661 40.282 6.2151 40.909 6.3111C41.51 6.4021 42.019 6.5791 42.454 6.8301C42.868 7.0741 43.189 7.4021 43.437 7.8441C43.668 8.2571 43.806 8.8441 43.806 9.6191C43.806 10.2601 43.716 10.8031 43.545 11.2561C43.381 11.6971 43.128 12.0541 42.766 12.3551C42.409 12.6541 41.932 12.8911 41.314 13.0551C40.701 13.2161 39.929 13.3041 39.004 13.3031Z" fill="#231F20"/>
<path d="M67.665 22.4721C67.567 22.3761 67.434 22.3221 67.301 22.3221H53.967L53.966 15.7001H65.917C66.055 15.7001 66.183 15.6451 66.281 15.5501C66.379 15.4521 66.43 15.3221 66.43 15.1841V12.5021C66.43 12.3651 66.375 12.2321 66.281 12.1381C66.183 12.0411 66.052 11.9861 65.917 11.9861H53.966V6.1661H66.8C66.938 6.1661 67.069 6.1131 67.164 6.0161C67.262 5.9181 67.314 5.7901 67.314 5.6521V2.9691C67.314 2.8331 67.259 2.7011 67.166 2.6041C67.069 2.5071 66.937 2.4541 66.8 2.4541H50.465C50.331 2.4541 50.2 2.5081 50.104 2.6041C50.01 2.7011 49.954 2.8331 49.954 2.9691V25.5191C49.954 25.6551 50.007 25.7851 50.104 25.8821C50.202 25.9811 50.331 26.0321 50.465 26.0321H67.301C67.438 26.0321 67.568 25.9801 67.665 25.8821C67.761 25.7841 67.814 25.6541 67.814 25.5191V22.8341C67.814 22.6981 67.759 22.5661 67.665 22.4721Z" fill="#231F20"/>
<path d="M88.7421 2.6041C88.6471 2.5071 88.5161 2.4541 88.3791 2.4541H85.5141C85.3771 2.4541 85.2441 2.5081 85.1481 2.6041C85.0531 2.7011 84.9971 2.8331 84.9971 2.9691V19.0731L74.159 2.6841C74.062 2.5411 73.9021 2.4541 73.7301 2.4541H70.6461C70.5101 2.4541 70.377 2.5081 70.284 2.6041C70.187 2.7011 70.1331 2.8331 70.1331 2.9691V25.5191C70.1331 25.6551 70.186 25.7851 70.284 25.8821C70.381 25.9811 70.5101 26.0321 70.6461 26.0321H73.4811C73.6181 26.0321 73.7471 25.9801 73.8441 25.8821C73.9431 25.7841 73.9941 25.6541 73.9941 25.5191V9.4381L84.8861 25.8031C84.9791 25.9471 85.14 26.0321 85.312 26.0321H88.3781C88.5171 26.0321 88.6461 25.9801 88.7411 25.8821C88.8401 25.7841 88.8931 25.6541 88.8931 25.5191V2.9691C88.8951 2.8331 88.84 2.7011 88.7421 2.6041Z" fill="#231F20"/>
<path d="M14.21 4.49922C18.859 4.50922 22.695 7.92022 23.377 12.3782C24.962 12.6072 26.259 13.0172 27.294 13.4732C27.287 13.1732 27.268 13.0242 27.268 13.0242L27.265 13.0202C26.871 6.14922 21.178 0.701219 14.21 0.699219C7.29899 0.701219 1.64899 6.05722 1.16699 12.8452C1.19099 13.2922 1.41799 14.1402 2.68999 14.7632L2.61199 14.7422C3.89699 15.4362 5.90199 16.2512 8.26699 16.2562C10.027 16.2562 12.371 15.7882 14.313 14.4772C15.672 13.5612 17.226 12.6972 18.909 12.6942C19.429 12.6932 19.949 12.7502 20.457 12.8552C20.6 12.8852 20.743 12.9162 20.881 12.9572C20.881 12.9572 21.358 13.2212 21.454 12.9082C21.507 12.7352 21.454 12.5872 21.395 12.4862C21.232 12.2082 20.811 11.9392 20.546 11.7682C20.173 11.5282 19.758 11.3542 19.33 11.2432C18.346 10.9882 17.292 11.0622 16.304 11.2622C15.311 11.4632 14.333 11.7962 13.419 12.2302C11.834 12.9852 10.171 13.2622 9.15599 13.2622C7.50099 13.2582 6.50899 12.5422 5.88099 11.8152C5.65299 11.5502 5.48199 11.2842 5.35199 11.0532C6.52199 7.26422 10.038 4.50822 14.21 4.49922Z" fill="#00B288"/>
<path d="M23.56 13.8984C23.55 14.1764 23.534 14.3964 23.524 14.4984H23.518C23.169 19.3114 19.165 23.1054 14.268 23.1144C10.262 23.1064 6.99099 20.9014 5.69599 17.3804C4.78899 17.1764 2.62199 16.5974 1.26799 15.5014C1.26799 15.5054 1.26699 15.5094 1.26599 15.5144C1.92799 22.1204 7.48399 26.9134 14.267 26.9164C21.065 26.9134 26.649 21.7274 27.283 15.0914C26.024 14.4444 24.655 14.0914 23.56 13.8984Z" fill="#231F20"/>
<path d="M88.8579 29.7363H2.04395V37.1253H88.8579V29.7363Z" fill="#231F20"/>
<path d="M34.276 33.3728V33.0558H35.717V32.2108H36.1V33.0558H38.016V33.3728H34.276ZM35.057 35.1138C34.804 34.9598 34.677 34.7678 34.677 34.5408C34.677 34.3108 34.804 34.1198 35.057 33.9698C35.313 33.8188 35.675 33.7418 36.144 33.7418C36.617 33.7418 36.981 33.8178 37.233 33.9698C37.488 34.1198 37.614 34.3108 37.614 34.5408C37.614 34.7688 37.488 34.9598 37.233 35.1138C36.981 35.2678 36.617 35.3438 36.144 35.3438C35.675 35.3448 35.313 35.2688 35.057 35.1138ZM37.596 31.3848C37.593 31.6388 37.574 31.8858 37.541 32.1258C37.508 32.3648 37.47 32.5788 37.429 32.7668H37.07C37.103 32.6228 37.132 32.4538 37.158 32.2528C37.186 32.0538 37.202 31.8718 37.204 31.7028H34.714V31.3848H37.596ZM35.377 34.9158C35.57 35.0008 35.827 35.0438 36.143 35.0438C36.459 35.0438 36.713 35.0008 36.91 34.9158C37.108 34.8308 37.204 34.7028 37.204 34.5368C37.204 34.3738 37.108 34.2528 36.91 34.1678C36.713 34.0838 36.459 34.0438 36.143 34.0438C35.827 34.0438 35.57 34.0838 35.377 34.1678C35.182 34.2528 35.084 34.3738 35.084 34.5368C35.084 34.7028 35.182 34.8308 35.377 34.9158Z" fill="white"/>
<path d="M38.318 33.3728V33.0558H39.759V32.2108H40.14V33.0558H42.058V33.3728H38.318ZM39.101 35.1138C38.846 34.9598 38.717 34.7678 38.717 34.5408C38.717 34.3108 38.846 34.1198 39.101 33.9698C39.356 33.8188 39.717 33.7418 40.187 33.7418C40.659 33.7418 41.022 33.8178 41.276 33.9698C41.528 34.1198 41.656 34.3108 41.656 34.5408C41.656 34.7688 41.528 34.9598 41.276 35.1138C41.023 35.2678 40.659 35.3438 40.187 35.3438C39.716 35.3448 39.355 35.2688 39.101 35.1138ZM41.637 31.3848C41.634 31.6388 41.614 31.8858 41.584 32.1258C41.55 32.3648 41.513 32.5788 41.472 32.7668H41.111C41.144 32.6228 41.175 32.4538 41.201 32.2528C41.228 32.0538 41.243 31.8718 41.247 31.7028H38.754V31.3848H41.637ZM39.419 34.9158C39.612 35.0008 39.869 35.0438 40.186 35.0438C40.501 35.0438 40.755 35.0008 40.951 34.9158C41.146 34.8308 41.246 34.7028 41.246 34.5368C41.246 34.3738 41.146 34.2528 40.951 34.1678C40.755 34.0838 40.501 34.0438 40.186 34.0438C39.869 34.0438 39.612 34.0838 39.419 34.1678C39.224 34.2528 39.126 34.3738 39.126 34.5368C39.126 34.7028 39.224 34.8308 39.419 34.9158Z" fill="white"/>
<path d="M43.99 32.7925C44.033 32.9725 44.1 33.1365 44.187 33.2895C44.281 33.4535 44.399 33.6035 44.542 33.7405C44.686 33.8765 44.855 34.0015 45.046 34.1155C44.997 34.1505 44.946 34.1955 44.897 34.2445C44.841 34.2975 44.798 34.3425 44.762 34.3795C44.659 34.3145 44.561 34.2385 44.464 34.1555C44.365 34.0715 44.275 33.9825 44.187 33.8855C44.088 33.7755 43.999 33.6575 43.92 33.5335C43.84 33.4085 43.774 33.2805 43.725 33.1485C43.689 33.2705 43.635 33.3965 43.564 33.5205C43.496 33.6475 43.414 33.7685 43.32 33.8845C43.227 34.0035 43.127 34.1165 43.015 34.2215C42.907 34.3265 42.8 34.4145 42.695 34.4875C42.657 34.4485 42.605 34.4055 42.543 34.3605C42.48 34.3115 42.418 34.2705 42.358 34.2295C42.544 34.1175 42.71 33.9875 42.858 33.8415C43.007 33.6965 43.129 33.5375 43.227 33.3635C43.326 33.1905 43.401 33.0035 43.453 32.8015C43.504 32.6015 43.531 32.3865 43.531 32.1595V31.8355H42.661V31.5165H44.811V31.8355H43.92V32.2175C43.921 32.4235 43.946 32.6145 43.99 32.7925ZM45.469 35.2655V32.8805H44.605V32.5445H45.469V31.2695H45.849V35.2655H45.469Z" fill="white"/>
<path d="M47.9861 32.3135C48.0411 32.4395 48.1131 32.5555 48.2071 32.6615C48.3031 32.7715 48.4161 32.8675 48.5511 32.9495C48.6851 33.0295 48.8211 33.0945 48.9601 33.1405C48.9171 33.1835 48.8711 33.2285 48.8271 33.2805C48.7821 33.3325 48.7441 33.3755 48.7141 33.4165C48.6251 33.3755 48.5291 33.3285 48.4241 33.2685C48.3221 33.2085 48.2211 33.1375 48.1261 33.0575C48.0421 32.9875 47.9651 32.9125 47.8931 32.8315C47.8211 32.7515 47.7591 32.6645 47.7091 32.5715C47.6751 32.6645 47.6291 32.7555 47.5641 32.8425C47.5011 32.9325 47.4321 33.0145 47.3521 33.0925C47.2591 33.1825 47.1591 33.2655 47.0461 33.3405C46.9331 33.4145 46.8191 33.4815 46.7061 33.5375C46.6731 33.5035 46.6281 33.4635 46.5691 33.4165C46.5101 33.3675 46.4571 33.3245 46.4041 33.2865C46.5721 33.2135 46.7291 33.1285 46.8771 33.0275C47.0231 32.9255 47.1481 32.8085 47.2481 32.6705C47.3301 32.5635 47.3941 32.4415 47.4411 32.3105C47.4861 32.1755 47.5081 32.0325 47.5081 31.8765V31.7725H46.7051V31.4535H48.7041V31.7725H47.9031V31.8895C47.9051 32.0445 47.9341 32.1855 47.9861 32.3135ZM49.3531 35.2925V34.1875H47.0621V33.8645H49.7241V35.2935L49.3531 35.2925ZM49.7241 32.5445V33.6765H49.3531V31.2695H49.7241V32.2115H50.2901V32.5445H49.7241Z" fill="white"/>
<path d="M52.4999 33.2119V33.6159H53.6859V34.5549H51.3549V34.9369H53.7739V35.2279H50.9439V34.2729H53.2769V33.9129H50.9439V33.6159H52.1149V33.2119H50.4449V32.9109H54.1839V33.2119H52.4999ZM50.9349 32.5749V31.3809H53.6909V32.5749H50.9349ZM53.3219 31.6759H51.2959V32.2789H53.3219V31.6759Z" fill="white"/>
<path d="M57.378 32.7925C57.422 32.9725 57.487 33.1365 57.574 33.2895C57.669 33.4535 57.79 33.6035 57.931 33.7405C58.074 33.8765 58.243 34.0015 58.436 34.1155C58.389 34.1505 58.337 34.1955 58.286 34.2445C58.234 34.2975 58.19 34.3425 58.154 34.3795C58.052 34.3145 57.951 34.2385 57.853 34.1555C57.753 34.0715 57.66 33.9825 57.574 33.8855C57.474 33.7755 57.386 33.6575 57.307 33.5335C57.228 33.4085 57.161 33.2805 57.111 33.1485C57.078 33.2705 57.026 33.3965 56.954 33.5205C56.883 33.6475 56.802 33.7685 56.708 33.8845C56.616 34.0035 56.514 34.1165 56.407 34.2215C56.3 34.3265 56.192 34.4145 56.087 34.4875C56.047 34.4485 55.995 34.4055 55.933 34.3605C55.873 34.3115 55.811 34.2705 55.748 34.2295C55.936 34.1175 56.102 33.9885 56.246 33.8445C56.39 33.7005 56.512 33.5415 56.614 33.3685C56.711 33.1945 56.787 33.0065 56.84 32.8055C56.893 32.6025 56.919 32.3875 56.919 32.1605V31.8365H56.052V31.5175H58.204V31.8365H57.31V32.2185C57.311 32.4235 57.331 32.6145 57.378 32.7925ZM59.08 31.2695V32.8185H59.68V33.1555H59.08V35.2695H58.701V31.2695H59.08Z" fill="white"/>
<path d="M62.631 33.8637V35.2647H62.25V33.8637H61.257V35.2327H60.877V33.8687H59.874V33.5407H63.613V33.8637H62.631ZM60.681 32.8827C60.421 32.7077 60.293 32.4907 60.293 32.2297C60.293 31.9697 60.421 31.7507 60.678 31.5737C60.937 31.3937 61.291 31.3047 61.742 31.3047C62.198 31.3047 62.554 31.3937 62.81 31.5707C63.068 31.7457 63.197 31.9667 63.197 32.2297C63.197 32.4877 63.068 32.7047 62.81 32.8807C62.553 33.0577 62.198 33.1447 61.742 33.1447C61.293 33.1447 60.94 33.0577 60.681 32.8827ZM60.99 32.6587C61.192 32.7627 61.442 32.8177 61.742 32.8177C62.042 32.8177 62.29 32.7647 62.49 32.6637C62.69 32.5597 62.788 32.4187 62.788 32.2387C62.788 32.0497 62.69 31.9007 62.493 31.7947C62.293 31.6867 62.045 31.6337 61.742 31.6337C61.439 31.6337 61.189 31.6857 60.986 31.7917C60.787 31.8967 60.686 32.0447 60.686 32.2297C60.687 32.4087 60.788 32.5527 60.99 32.6587Z" fill="white"/>
<path d="M64.451 31.7455C64.664 31.5065 64.891 31.3855 65.139 31.3855C65.388 31.3855 65.618 31.5065 65.825 31.7485C66.03 31.9905 66.135 32.3765 66.135 32.9025C66.135 33.4205 66.031 33.8025 65.83 34.0525C65.626 34.2995 65.394 34.4255 65.14 34.4255C64.884 34.4255 64.654 34.3005 64.447 34.0545C64.239 33.8065 64.137 33.4225 64.137 32.9025C64.136 32.3725 64.242 31.9865 64.451 31.7455ZM64.671 33.7315C64.78 33.9725 64.937 34.0915 65.143 34.0915C65.345 34.0915 65.501 33.9725 65.603 33.7315C65.708 33.4905 65.764 33.2115 65.764 32.8995C65.764 32.5925 65.708 32.3195 65.603 32.0785C65.501 31.8385 65.345 31.7175 65.143 31.7175C64.937 31.7175 64.781 31.8385 64.671 32.0815C64.559 32.3235 64.504 32.5965 64.504 32.8995C64.504 33.2125 64.559 33.4905 64.671 33.7315ZM66.938 35.2655V31.2695H67.315V35.2655H66.938Z" fill="white"/>
<path d="M67.9561 33.5502V33.2302H68.9761V32.6372C68.7871 32.5692 68.6401 32.4772 68.5421 32.3652C68.4421 32.2532 68.3951 32.1312 68.3951 32.0002C68.3951 31.7882 68.5181 31.6072 68.7691 31.4612C69.0181 31.3152 69.3701 31.2402 69.8201 31.2402C70.2841 31.2402 70.6401 31.3152 70.8891 31.4652C71.1421 31.6152 71.2681 31.7982 71.2681 32.0092C71.2681 32.1372 71.2191 32.2572 71.1211 32.3672C71.0251 32.4782 70.8801 32.5692 70.6891 32.6382V33.2312H71.6991V33.5502H67.9561ZM68.7411 34.0592C68.9941 33.9192 69.354 33.8512 69.826 33.8512C70.299 33.8512 70.6591 33.9212 70.9121 34.0642C71.1631 34.2072 71.2891 34.3842 71.2891 34.6012C71.2891 34.8112 71.1641 34.9882 70.9141 35.1302C70.6631 35.2742 70.302 35.3452 69.826 35.3452C69.354 35.3452 68.9941 35.2742 68.7411 35.1302C68.4881 34.9872 68.3621 34.8092 68.3621 34.5952C68.3621 34.3762 68.4881 34.1992 68.7411 34.0592ZM69.0651 34.9322C69.2531 35.0142 69.507 35.0542 69.826 35.0542C70.138 35.0542 70.3891 35.0142 70.5791 34.9322C70.7711 34.8522 70.868 34.7412 70.868 34.6012C70.868 34.4512 70.7711 34.3362 70.5791 34.2542C70.3891 34.1732 70.138 34.1332 69.826 34.1332C69.508 34.1332 69.2541 34.1732 69.0651 34.2542C68.8741 34.3362 68.7801 34.4492 68.7801 34.5952C68.7801 34.7392 68.8741 34.8522 69.0651 34.9322ZM69.0771 32.3352C69.2651 32.4232 69.5131 32.4662 69.8191 32.4662C70.1271 32.4662 70.3761 32.4252 70.5701 32.3392C70.7611 32.2532 70.8591 32.1432 70.8591 32.0052C70.8591 31.8642 70.7611 31.7492 70.5701 31.6612C70.3761 31.5722 70.1271 31.5272 69.8191 31.5272C69.5141 31.5272 69.2681 31.5722 69.0811 31.6562C68.8931 31.7402 68.7971 31.8552 68.7971 31.9952C68.7971 32.1332 68.8911 32.2452 69.0771 32.3352ZM70.3191 32.7182C70.2481 32.7352 70.1691 32.7452 70.0841 32.7522C69.9981 32.7592 69.9111 32.7632 69.8191 32.7632C69.7371 32.7632 69.6531 32.7592 69.5711 32.7522C69.4881 32.7452 69.4141 32.7352 69.3491 32.7232V33.2312H70.3191V32.7182Z" fill="white"/>
<path d="M72.205 32.3325V32.0095H74.536V32.3325H72.205ZM72.641 32.9135C72.829 32.7245 73.076 32.6285 73.382 32.6285C73.676 32.6285 73.918 32.7245 74.108 32.9135C74.298 33.1035 74.393 33.3285 74.393 33.5855C74.393 33.8375 74.298 34.0625 74.108 34.2605C73.919 34.4565 73.676 34.5565 73.382 34.5565C73.083 34.5565 72.838 34.4575 72.645 34.2645C72.456 34.0705 72.359 33.8435 72.359 33.5855C72.358 33.3285 72.453 33.1045 72.641 32.9135ZM72.916 34.0465C73.026 34.1705 73.183 34.2315 73.382 34.2315C73.577 34.2315 73.731 34.1685 73.841 34.0445C73.952 33.9175 74.006 33.7655 74.006 33.5855C74.006 33.4095 73.952 33.2595 73.841 33.1345C73.731 33.0095 73.577 32.9485 73.382 32.9485C73.183 32.9485 73.027 33.0095 72.916 33.1345C72.805 33.2595 72.749 33.4095 72.749 33.5855C72.749 33.7675 72.805 33.9215 72.916 34.0465ZM72.769 31.6725V31.3585H73.979V31.6725H72.769ZM75.143 35.2655V33.2805H74.473V32.9445H75.143V31.2695H75.521V35.2655H75.143Z" fill="white"/>
<path d="M78.7539 33.3786C78.6079 33.4076 78.3909 33.4356 78.0999 33.4646C77.8079 33.4946 77.5449 33.5126 77.3089 33.5186C77.1519 33.5226 76.9469 33.5246 76.6929 33.5276C76.4419 33.5316 76.3079 33.5316 76.2969 33.5316V32.2986H77.7779V31.7306H76.2969V31.4176H78.1479V32.6026H76.6629V33.2086L77.3519 33.1996C77.5389 33.1966 77.7789 33.1806 78.0769 33.1516C78.3729 33.1246 78.5989 33.0936 78.7559 33.0636V33.3786H78.7539ZM78.9229 35.2926V34.2606H76.6379V33.9356H79.3109V35.2926H78.9229ZM79.3109 32.5476V33.7476H78.9339V31.2686H79.3109V32.2196H79.8629V32.5466L79.3109 32.5476Z" fill="white"/>
<path d="M11.4399 30.9395H12.5459V33.1245H12.5609C12.6719 32.9345 12.7879 32.7575 12.9049 32.5835L14.0189 30.9395H15.3979L13.7629 33.0435L15.4769 35.8785H14.1789L12.9639 33.7465L12.5469 34.2675V35.8785H11.4399V30.9395Z" fill="white"/>
<path d="M17.5359 35.9604C16.0779 35.9604 15.2129 34.8544 15.2129 33.4464C15.2129 31.9664 16.1649 30.8594 17.6159 30.8594C19.1329 30.8594 19.9609 31.9964 19.9609 33.3584C19.9609 34.9854 18.9859 35.9604 17.5419 35.9604H17.5359ZM17.5859 35.0724C18.3409 35.0724 18.7719 34.3634 18.7719 33.3954C18.7719 32.5084 18.3549 31.7464 17.5859 31.7464C16.8179 31.7464 16.3839 32.4944 16.3839 33.4174C16.3839 34.3484 16.8319 35.0724 17.5789 35.0724H17.5859Z" fill="white"/>
<path d="M24.6349 35.6517C24.2909 35.7687 23.6369 35.9307 22.9869 35.9307C22.0859 35.9307 21.4329 35.7017 20.9789 35.2707C20.5319 34.8387 20.2839 34.1947 20.2839 33.4677C20.2899 31.8267 21.4849 30.8877 23.1029 30.8877C23.7399 30.8877 24.2309 31.0137 24.4739 31.1227L24.2389 32.0237C23.9669 31.8987 23.6369 31.8117 23.0959 31.8117C22.1659 31.8117 21.4539 32.3387 21.4539 33.4097C21.4539 34.4347 22.0999 35.0287 23.0159 35.0287C23.2659 35.0287 23.4719 34.9997 23.5579 34.9617V33.9227H22.7969V33.0507H24.6349V35.6517Z" fill="white"/>
<path d="M25.3309 30.9395H26.4449V34.9415H28.4079V35.8795H25.3309V30.9395Z" fill="white"/>
</svg>
